<svg xmlns="http://www.w3.org/2000/svg" version="1.1" xmlns:xlink="http://www.w3.org/1999/xlink" xmlns:svgjs="http://svgjs.com/svgjs" width="2550" height="1444" preserveAspectRatio="none" viewBox="0 0 2550 1444"><g mask="url(&quot;#SvgjsMask1082&quot;)" fill="none"><rect width="2550" height="1444" x="0" y="0" fill="url(#SvgjsLinearGradient1083)"></rect><path d="M150 1444L1594 0L2435.5 0L991.5 1444z" fill="url(#SvgjsLinearGradient1084)"></path><path d="M896.5 1444L2340.5 0L2850.5 0L1406.5 1444z" fill="url(#SvgjsLinearGradient1084)"></path><path d="M2476 1444L1032 0L309 0L1753 1444z" fill="url(#SvgjsLinearGradient1085)"></path><path d="M1611.5 1444L167.5 0L-813.5 0L630.5 1444z" fill="url(#SvgjsLinearGradient1085)"></path><path d="M1222.6635317395373 1444L2550 116.66353173953735L2550 1444z" fill="url(#SvgjsLinearGradient1084)"></path><path d="M0 1444L1327.3364682604627 1444L 0 116.66353173953735z" fill="url(#SvgjsLinearGradient1085)"></path></g><defs><mask id="SvgjsMask1082"><rect width="2550" height="1444" fill="#ffffff"></rect></mask><linearGradient x1="10.84%" y1="-19.15%" x2="89.16%" y2="119.15%" gradientUnits="userSpaceOnUse" id="SvgjsLinearGradient1083"><stop stop-color="#0e2a47" offset="0"></stop><stop stop-color="#00459e" offset="1"></stop></linearGradient><linearGradient x1="0%" y1="100%" x2="100%" y2="0%" id="SvgjsLinearGradient1084"><stop stop-color="rgba(15, 70, 185, 0.2)" offset="0"></stop><stop stop-opacity="0" stop-color="rgba(15, 70, 185, 0.2)" offset="0.66"></stop></linearGradient><linearGradient x1="100%" y1="100%" x2="0%" y2="0%" id="SvgjsLinearGradient1085"><stop stop-color="rgba(15, 70, 185, 0.2)" offset="0"></stop><stop stop-opacity="0" stop-color="rgba(15, 70, 185, 0.2)" offset="0.66"></stop></linearGradient></defs></svg>