<svg xmlns="http://www.w3.org/2000/svg" viewBox="0 0 380 460">
  <defs>
    <style>
      .cls-1{fill:#002f79;}.cls-2{fill:#6fc9ef;}.cls-3{fill:#67d0f5;}.cls-4{fill:#001e69;}.cls-5{fill:#0a3782;}.cls-6{fill:#21376c;}.cls-7{fill:#22376d;}.cls-8{fill:#fff;}.cls-9{fill:#0096ca;}
    </style>
  </defs>
  <title>
    ico-processeur
  </title>
  <g id="CONFIG">
    <g id="base">
      <path d="M279 3.59L243.59 39 261 56.41 296.41 21zM246.41 39L279 6.41 293.59 21l-2.29 2.29L288 20l-2 2 3.29 3.29-1.79 1.79-3.29-3.29-2 2 3.29 3.29-1.79 1.79-3.29-3.29-2 2 3.29 3.29-1.79 1.79-3.29-3.29-2 2 3.29 3.29-1.79 1.79-3.29-3.29-2 2 3.29 3.29-1.79 1.79-3.29-3.29-2 2 3.29 3.29-1.76 1.76-3.29-3.29-2 2 3.29 3.29-1.79 1.79-3.29-3.29-2 2 3.29 3.29-1.79 1.8z" class="cls-1"/>
      <path d="M252.827 39.004l2.673-2.673 4.674 4.677-2.673 2.673z" class="cls-2"/>
      <path d="M255.5 33.5L250 39l7.5 7.5L263 41zm0 2.83l4.67 4.67-2.67 2.67-4.67-4.67z" class="cls-1"/>
      <path d="M260.65 31.164l2.673-2.673 4.674 4.677-2.673 2.673z" class="cls-2"/>
      <path d="M270.83 33.17l-7.5-7.5-5.5 5.5 7.5 7.5zm-2.83 0l-2.67 2.67-4.67-4.67 2.67-2.67z" class="cls-1"/>
      <path d="M276.327 15.5L279 12.827l4.674 4.674L281 20.177z" class="cls-2"/>
      <path d="M286.5 17.5L279 10l-5.5 5.5L281 23zm-7.5-4.67l4.67 4.67-2.67 2.67-4.67-4.67z" class="cls-1"/>
      <path d="M268.497 23.334l2.673-2.673 4.674 4.677-2.673 2.673z" class="cls-2"/>
      <path d="M278.67 25.33l-7.5-7.5-5.5 5.5 7.5 7.5zm-7.5-4.67l4.67 4.67-2.67 2.67-4.67-4.67z" class="cls-1"/>
      <path d="M363 105a9 9 0 1 0-9-9 9 9 0 0 0 9 9zm0-13a4 4 0 1 1-4 4 4 4 0 0 1 4-4z" class="cls-3"/>
      <circle cx="363" cy="96" r="2" class="cls-3"/>
      <path d="M374 117.7l-4.12-13.09a11 11 0 1 0-16-14.61H335a1 1 0 0 0-1 .72l-8 27a.9.9 0 0 0 0 .11 1 1 0 0 0 0 .17v14a1 1 0 0 0 1 1h46a1 1 0 0 0 1-1v-14a1.2 1.2 0 0 1 0-.3zM363 87a9 9 0 1 1-9 9 9 9 0 0 1 9-9zm-27.25 5h17a11 11 0 0 0 15.33 13.74l3.56 11.26h-43.3zM372 131h-44v-12h44z" class="cls-1"/>
      <path d="M363 100a4 4 0 1 0-4-4 4 4 0 0 0 4 4zm0-6a2 2 0 1 1-2 2 2 2 0 0 1 2-2zm-32 33h4v2h-4zm0-5h38v2h-38zM5 16h4v2H5zm0 5h4v2H5zm0 5h4v2H5zm0 6h4v2H5zm0 5h4v2H5zm0 5h4v2H5zm46-26h4v2h-4zm0 5h4v2h-4zm0 5h4v2h-4zm0 6h4v2h-4zm0 5h4v2h-4zm0 5h4v2h-4zM42 5h2v4h-2zm-5 0h2v4h-2zm-5 0h2v4h-2zm-6 0h2v4h-2zm-5 0h2v4h-2zm-5 0h2v4h-2zm26 46h2v4h-2zm-5 0h2v4h-2zm-5 0h2v4h-2zm-6 0h2v4h-2zm-5 0h2v4h-2zm-5 0h2v4h-2zm-4-3h36V12H12zm2-34h32v32H14z" class="cls-1"/>
      <path d="M25 25h10v10H25z" class="cls-3"/>
      <path d="M23 37h14V23H23zm2-12h10v10H25zm68-15h2v2h-2zm33 0h2v2h-2zM93 43h2v2h-2z" class="cls-1"/>
      <path d="M131 6H89v42h9.31c1.06 3.44 4.77 6 9.19 6a11.07 11.07 0 0 0 3-.42 11.07 11.07 0 0 0 3 .42c4.42 0 8.13-2.56 9.19-6H131zm-30.45 42h3.76a7.9 7.9 0 0 0 2.82 3.92 7.4 7.4 0 0 1-6.58-3.92zm9.95 3.42a6.71 6.71 0 0 1-3.95-3.42h7.9a6.71 6.71 0 0 1-3.95 3.42zm3.37.5a7.9 7.9 0 0 0 2.82-3.92h3.76a7.4 7.4 0 0 1-6.58 3.92zM129 27v19H91V8h38z" class="cls-1"/>
      <path d="M110 8a19 19 0 1 0 19 19 19 19 0 0 0-19-19zm0 36a17 17 0 1 1 17-17 17 17 0 0 1-17 17zm16-1h2v2h-2z" class="cls-1"/>
      <path d="M112 13.14v8.2q.27.1.54.22l5.81-5.81a13.86 13.86 0 0 0-6.35-2.61z" class="cls-3"/>
      <path d="M110 11v12a4 4 0 0 1 2.79 1.14l8.49-8.49A16 16 0 0 0 110 11zm2 10.34v-8.2a13.86 13.86 0 0 1 6.34 2.62l-5.81 5.81q-.26-.13-.53-.23z" class="cls-4"/>
      <path d="M124.07 29h-8.2q-.1.27-.22.54l5.81 5.81a13.86 13.86 0 0 0 2.61-6.35z" class="cls-3"/>
      <path d="M113.07 29.79l8.49 8.49A16 16 0 0 0 126.21 27h-12a4 4 0 0 1-1.14 2.79zm2.8-.79h8.2a13.86 13.86 0 0 1-2.62 6.34l-5.81-5.81q.13-.26.23-.53z" class="cls-4"/>
      <path d="M108 41v-8.2q-.27-.1-.54-.22l-5.81 5.81A13.86 13.86 0 0 0 108 41z" class="cls-3"/>
      <path d="M98.72 38.49A16 16 0 0 0 110 43.14v-12a4 4 0 0 1-2.79-1.14zM108 32.8V41a13.86 13.86 0 0 1-6.34-2.62l5.81-5.81q.26.13.53.23z" class="cls-4"/>
      <path d="M95.93 25h8.2q.1-.27.22-.54l-5.81-5.81A13.86 13.86 0 0 0 95.93 25z" class="cls-3"/>
      <path d="M106.93 24.21l-8.49-8.49A16 16 0 0 0 93.79 27h12a4 4 0 0 1 1.14-2.79zm-2.8.79h-8.2a13.86 13.86 0 0 1 2.62-6.34l5.81 5.81q-.13.26-.23.53z" class="cls-4"/>
      <circle cx="110" cy="27" r="2" class="cls-4"/>
      <path d="M165 5v50h50V5zm48 48h-46V7h46z" class="cls-1"/>
      <path d="M192 13h-16v16h16zm-2 14h-12V15h12z" class="cls-1"/>
      <path d="M195 13h2v16h-2zm3 0h2v16h-2zm-22 23h16v2h-16zm30 0h5v2h-5zm0 3h5v2h-5zm3 10h2v2h-2zm0-40h2v2h-2zm-40 40h2v2h-2zm0-40h2v2h-2zm37 24h5v2h-5zm-30 6h16v2h-16zm25-26h2v16h-2z" class="cls-5"/>
      <circle cx="199" cy="37" r="2" class="cls-3"/>
      <path d="M199 41a4 4 0 1 0-4-4 4 4 0 0 0 4 4zm0-6a2 2 0 1 1-2 2 2 2 0 0 1 2-2z" class="cls-5"/>
      <path d="M335 25h12v11h-12z" class="cls-3"/>
      <path d="M331 16v-5h-5v2h3v35h2v-3h42V16zm40 27h-40V18h40z" class="cls-1"/>
      <path d="M347 23v-3h-2v3h-3v-3h-2v3h-3v-3h-2v3h-2v15h2v3h2v-3h3v3h2v-3h3v3h2v-3h2V23zm0 13h-12V25h12z" class="cls-5"/>
      <path d="M360 38a8 8 0 1 0-8-8 8 8 0 0 0 8 8zm0-14a6 6 0 1 1-6 6 6 6 0 0 1 6-6z" class="cls-1"/>
      <path d="M357.71 33.71l2.29-2.3 2.29 2.3 1.42-1.42-2.3-2.29 2.3-2.29-1.42-1.42-2.29 2.3-2.29-2.3-1.42 1.42 2.3 2.29-2.3 2.29 1.42 1.42z" class="cls-1"/>
      <path d="M95 185h12v11H95z" class="cls-3"/>
      <path d="M91 176v-5h-5v2h3v35h2v-3h42v-29zm40 27H91v-25h40z" class="cls-1"/>
      <path d="M124 189v-3h-3v-4h-2v4h-3v3h-4v2h4v3h3v4h2v-4h3v-3h4v-2zm-2 3h-4v-4h4zm-15-9v-3h-2v3h-3v-3h-2v3h-3v-3h-2v3h-2v15h2v3h2v-3h3v3h2v-3h3v3h2v-3h2v-15zm0 13H95v-11h12z" class="cls-5"/>
      <path d="M15 90h3v2h-3z" class="cls-6"/>
      <path d="M13 132h34v-6H13zm8-4h4v2h-4zm-6 0h4v2h-4z" class="cls-3"/>
      <path d="M11 86v48h38V86zm36 46H13v-6h34zm-34-8V88h34v36z" class="cls-6"/>
      <path d="M42 90h3v2h-3z" class="cls-6"/>
      <path d="M24.4 108.83a10.1 10.1 0 0 0-1.3-.46 5.91 5.91 0 0 1-1.17-.45.68.68 0 0 1-.38-.62.53.53 0 0 1 .26-.48 1.34 1.34 0 0 1 .71-.17 3.83 3.83 0 0 1 1.14.21 5.84 5.84 0 0 1 1.26.58l.67-1.44a5.28 5.28 0 0 0-1.36-.62 5.42 5.42 0 0 0-1.56-.23 4 4 0 0 0-1.56.28 2.38 2.38 0 0 0-1 .8 2 2 0 0 0-.37 1.22 1.85 1.85 0 0 0 .36 1.2 2.28 2.28 0 0 0 .86.67 9.85 9.85 0 0 0 1.29.44c.37.1.65.19.86.28a1.57 1.57 0 0 1 .52.31.69.69 0 0 1-.1 1.06 1.53 1.53 0 0 1-.84.2 3.61 3.61 0 0 1-1.39-.32 4.7 4.7 0 0 1-1.34-.85l-.69 1.42a5 5 0 0 0 1.56.9 5.29 5.29 0 0 0 1.84.33 4.13 4.13 0 0 0 1.55-.27 2.41 2.41 0 0 0 1.07-.81 2.09 2.09 0 0 0 .39-1.27 1.92 1.92 0 0 0-.36-1.22 2.3 2.3 0 0 0-.92-.69zm7 0a10.1 10.1 0 0 0-1.3-.46 5.91 5.91 0 0 1-1.17-.45.68.68 0 0 1-.38-.62.53.53 0 0 1 .26-.48 1.34 1.34 0 0 1 .71-.17 3.83 3.83 0 0 1 1.14.21 5.84 5.84 0 0 1 1.26.58l.68-1.44a5.28 5.28 0 0 0-1.36-.62 5.42 5.42 0 0 0-1.56-.23 4 4 0 0 0-1.56.28 2.38 2.38 0 0 0-1 .8 2 2 0 0 0-.37 1.22 1.85 1.85 0 0 0 .36 1.2 2.28 2.28 0 0 0 .86.67 9.85 9.85 0 0 0 1.29.44c.37.1.65.19.86.28a1.57 1.57 0 0 1 .52.31.69.69 0 0 1-.1 1.06 1.53 1.53 0 0 1-.84.2 3.61 3.61 0 0 1-1.39-.32 4.7 4.7 0 0 1-1.34-.85l-.69 1.42a5 5 0 0 0 1.56.9 5.29 5.29 0 0 0 1.84.33 4.13 4.13 0 0 0 1.55-.27 2.41 2.41 0 0 0 1.07-.81 2.09 2.09 0 0 0 .39-1.27 1.92 1.92 0 0 0-.36-1.22 2.3 2.3 0 0 0-.93-.69zm7.83-3.04a4.42 4.42 0 0 0-2.1-.49h-3.27v7.7h3.2a4.53 4.53 0 0 0 2.13-.49 3.61 3.61 0 0 0 1.46-1.36 3.82 3.82 0 0 0 .52-2 3.88 3.88 0 0 0-.51-2 3.55 3.55 0 0 0-1.43-1.36zm-.11 4.6a2.1 2.1 0 0 1-.8.84 2.21 2.21 0 0 1-1.15.3H35.6v-4.77h1.5a2.32 2.32 0 0 1 1.18.3 2.19 2.19 0 0 1 .83.85 2.54 2.54 0 0 1 .3 1.24 2.59 2.59 0 0 1-.29 1.24z" class="cls-5"/>
      <path d="M15 128h4v2h-4zm6 0h4v2h-4z" class="cls-6"/>
      <path d="M91 85v48h38V85zm36 46H93V87h34z" class="cls-7"/>
      <path d="M95 89h3v2h-3zm27 0h3v2h-3zm-27 38h3v2h-3zm27 0h3v2h-3z" class="cls-6"/>
      <path d="M110 120a11 11 0 0 0 2.33-.25l-3-3 1.41-1.41 3.75 3.75a11 11 0 1 0-4.46 1zm0-16a5 5 0 1 1-5 5 5 5 0 0 1 5-5z" class="cls-3"/>
      <circle cx="110" cy="109" r="3" class="cls-8"/>
      <path d="M110 114a5 5 0 1 0-5-5 5 5 0 0 0 5 5zm0-8a3 3 0 1 1-3 3 3 3 0 0 1 3-3z" class="cls-5"/>
      <circle cx="123" cy="122" r="1" class="cls-8"/>
      <path d="M123 119a3 3 0 0 0-2.82 2h-3.77l-.46-.46a12.85 12.85 0 1 0-2 .84l1.62 1.62h4.6a3 3 0 1 0 2.82-4zm-8.54 0l-3.75-3.75-1.41 1.41 3 3a11 11 0 1 1 2.13-.7zm8.54 4a1 1 0 1 1 1-1 1 1 0 0 1-1 1z" class="cls-5"/>
      <path d="M178 88h24v5h-24z" class="cls-3"/>
      <path d="M176 86v48h28V86zm2 2h24v5h-24zm24 44h-24V95h24z" class="cls-5"/>
      <path d="M180 99h20v2h-20zm0 4h2v2h-2zm3 0h2v2h-2z" class="cls-5"/>
      <circle cx="190" cy="125" r="2" class="cls-9"/>
      <path d="M190 121a4 4 0 1 0 4 4 4 4 0 0 0-4-4zm0 6a2 2 0 1 1 2-2 2 2 0 0 1-2 2zm58-39v44h44V88zm42 42h-40V90h40z" class="cls-5"/>
      <path d="M264 123h12V98h-12zm7-2h-2v-6h2zm-1-21a4 4 0 1 1-4 4 4 4 0 0 1 4-4z" class="cls-3"/>
      <path d="M278 96h-16v29h16zm-2 27h-12V98h12z" class="cls-5"/>
      <path d="M269 115h2v6h-2z" class="cls-5"/>
      <circle cx="270" cy="104" r="2" class="cls-8"/>
      <path d="M270 108a4 4 0 1 0-4-4 4 4 0 0 0 4 4zm0-6a2 2 0 1 1-2 2 2 2 0 0 1 2-2z" class="cls-5"/>
      <circle cx="284.5" cy="95.5" r="1.5" class="cls-3"/>
      <path d="M284.5 99a3.5 3.5 0 1 0-3.5-3.5 3.5 3.5 0 0 0 3.5 3.5zm0-5a1.5 1.5 0 1 1-1.5 1.5 1.5 1.5 0 0 1 1.5-1.5z" class="cls-5"/>
      <circle cx="255.5" cy="95.5" r="1.5" class="cls-3"/>
      <path d="M255.5 99a3.5 3.5 0 1 0-3.5-3.5 3.5 3.5 0 0 0 3.5 3.5zm0-5a1.5 1.5 0 1 1-1.5 1.5 1.5 1.5 0 0 1 1.5-1.5z" class="cls-5"/>
      <circle cx="284.5" cy="124.5" r="1.5" class="cls-3"/>
      <path d="M284.5 128a3.5 3.5 0 1 0-3.5-3.5 3.5 3.5 0 0 0 3.5 3.5zm0-5a1.5 1.5 0 1 1-1.5 1.5 1.5 1.5 0 0 1 1.5-1.5z" class="cls-5"/>
      <circle cx="255.5" cy="124.5" r="1.5" class="cls-3"/>
      <path d="M255.5 128a3.5 3.5 0 1 0-3.5-3.5 3.5 3.5 0 0 0 3.5 3.5zm0-5a1.5 1.5 0 1 1-1.5 1.5 1.5 1.5 0 0 1 1.5-1.5z" class="cls-5"/>
      <path d="M15 185h12v11H15z" class="cls-3"/>
      <path d="M11 176v-5H6v2h3v35h2v-3h42v-29zm40 27H11v-25h40z" class="cls-1"/>
      <path d="M27 183v-3h-2v3h-3v-3h-2v3h-3v-3h-2v3h-2v15h2v3h2v-3h3v3h2v-3h3v3h2v-3h2v-15zm0 13H15v-11h12z" class="cls-5"/>
      <path d="M34 195h4.68l6.74 4.81a1 1 0 0 0 .58.19 1 1 0 0 0 .46-.11A1 1 0 0 0 47 199v-17a1 1 0 0 0-1.58-.81L38.68 186H34a1 1 0 0 0-1 1v7a1 1 0 0 0 1 1zm1-7h4a1 1 0 0 0 .58-.19l5.42-3.87v13.11l-5.42-3.87A1 1 0 0 0 39 193h-4z" class="cls-1"/>
      <path d="M191.122 184.692l1.38-1.38 4.17 4.173-1.378 1.378z" class="cls-8"/>
      <path d="M196.59 193l-9.59-9.59-17.29 17.29c-.19.2-4.71 4.87 0 9.59s9.39.19 9.59 0zm-22.88 11.71l-1.41-1.41 14-14 1.41 1.41zm1.59 1.59l14-14 1.41 1.41-14 14z" class="cls-3"/>
      <path d="M175.294 206.294l14-14 1.415 1.414-14 14zm-3.002-3l14-14 1.415 1.414-14 14z" class="cls-5"/>
      <path d="M208.51 167.9l-1.1 1.1 3.59 3.59 1.1-1.1.79-3.18-1.2-1.2-3.18.79z" class="cls-8"/>
      <path d="M212.31 164.89l-4.82 1.2-2.9 2.9 2.5 2.5-11.79 11.79-2.79-2.79-2.79 2.79-2.72-2.69-18.71 18.71c-2.15 2.15-4.91 7.5 0 12.41a8.4 8.4 0 0 0 6 2.74 9.47 9.47 0 0 0 6.38-2.74L199.41 193l-2.71-2.71 2.79-2.79-2.79-2.79 11.79-11.79 2.5 2.5 2.9-2.9 1.2-4.82zm-42.6 45.4c-4.71-4.71-.19-9.39 0-9.59L187 183.41l9.59 9.59-17.29 17.29c-.2.19-4.88 4.71-9.59 0zm21.41-25.59l1.38-1.38 4.17 4.17-1.38 1.38zm21-13.22l-1.1 1.1-3.61-3.58 1.1-1.1 3.18-.8 1.2 1.2z" class="cls-5"/>
      <path d="M357 171h-3v2h-2v-2h-4v2h-2v-2h-3v6h14v-6z" class="cls-3"/>
      <path d="M345 183h10v2h-10z" class="cls-5"/>
      <path d="M359 177v-8h-18v8h-4v21a4 4 0 0 0 4 4h8a11.33 11.33 0 0 0 1.07 4.37A9.62 9.62 0 0 1 351 210c0 2.18-2 5.36-2.8 6.4l1.6 1.2c.13-.17 3.2-4.3 3.2-7.6a11.33 11.33 0 0 0-1.07-4.37A9.62 9.62 0 0 1 351 202h8a4 4 0 0 0 4-4v-21zm-16-6h3v2h2v-2h4v2h2v-2h3v6h-14zm18 27a2 2 0 0 1-2 2h-18a2 2 0 0 1-2-2v-19h22z" class="cls-5"/>
      <path d="M345 187h10v2h-10z" class="cls-5"/>
      <path d="M37 280v-2H23v2h14z" class="cls-3"/>
      <path d="M17 249v29h4v4h8a11.33 11.33 0 0 0 1.07 4.37A9.62 9.62 0 0 1 31 290c0 2.18-2 5.36-2.8 6.4l1.6 1.2c.13-.17 3.2-4.3 3.2-7.6a11.33 11.33 0 0 0-1.07-4.37A9.62 9.62 0 0 1 31 282h8v-4h4v-29zm20 31H23v-2h14zm4-4H19v-25h4v5h2v-5h4v5h2v-5h4v5h2v-5h4zm229-109a23 23 0 1 0 23 23 23 23 0 0 0-23-23zm0 44a21 21 0 1 1 21-21 21 21 0 0 1-21 21z" class="cls-5"/>
      <circle cx="270" cy="190" r="5" class="cls-3"/>
      <path d="M270 183a7 7 0 1 0 7 7 7 7 0 0 0-7-7zm0 12a5 5 0 1 1 5-5 5 5 0 0 1-5 5zm0-21v2a14 14 0 0 1 14 14h2a16 16 0 0 0-16-16z" class="cls-5"/>
      <path d="M127 260a7 7 0 1 0 7 7 7 7 0 0 0-7-7zm-2 11.41l-3.71-3.71 1.41-1.41 2.29 2.29 5.79-5.79 1.41 1.41z" class="cls-3"/>
      <path d="M136 267a9 9 0 0 0-8-8.94V253H88v29h19v4h-9v2h20v-2h-9v-4h19v-6.06a9 9 0 0 0 8-8.94zm-9 7a7 7 0 1 1 7-7 7 7 0 0 1-7 7zm-37-19h36v3.06a9 9 0 0 0-3.1 16.94H90zm36 25H90v-3h36z" class="cls-5"/>
      <path d="M130.79 262.79l-5.79 5.8-2.29-2.3-1.42 1.42 3.71 3.7 7.21-7.2-1.42-1.42zM205 373h-30v-46h30zm-28-2h26v-42h-26zm-91-39v32h23v3h-9v2h20v-2h-9v-3h23v-32zm46 30H88v-6h44zm-44-8v-20h44v20z" class="cls-5"/>
      <path d="M88 362h44v-6H88zm40-4h2v2h-2zm-4 0h2v2h-2z" class="cls-3"/>
      <path d="M128 358h2v2h-2zm-4 0h2v2h-2z" class="cls-5"/>
      <path d="M173 253h2v2h-2zm33 0h2v2h-2zm-33 33h2v2h-2z" class="cls-1"/>
      <path d="M169 249v42h42v-42zm40 40h-38v-38h38z" class="cls-1"/>
      <path d="M206 286h2v2h-2zm-16 1a17 17 0 1 0-17-17 17 17 0 0 0 17 17zm0-32a15 15 0 1 1-15 15 15 15 0 0 1 15-15z" class="cls-1"/>
      <path d="M189 265.1V258a11.89 11.89 0 0 0-6.75 2.8l5 5a4.93 4.93 0 0 1 1.75-.7z" class="cls-3"/>
      <path d="M187.88 267.88A3 3 0 0 1 190 267h1v-11h-1a13.91 13.91 0 0 0-9.9 4.1l-.71.71 7.78 7.78zM189 258v7.06a4.93 4.93 0 0 0-1.76.73l-5-5A11.89 11.89 0 0 1 189 258z" class="cls-4"/>
      <path d="M194.17 267.24a4.93 4.93 0 0 1 .73 1.76h7.1a11.89 11.89 0 0 0-2.8-6.75z" class="cls-3"/>
      <path d="M193 270v1h11v-1a13.91 13.91 0 0 0-4.1-9.9l-.71-.71-7.78 7.78.71.71A3 3 0 0 1 193 270zm1.9-1a4.93 4.93 0 0 0-.73-1.76l5-5A11.89 11.89 0 0 1 202 269z" class="cls-4"/>
      <path d="M185.83 272.76a4.93 4.93 0 0 1-.73-1.76H178a11.89 11.89 0 0 0 2.8 6.75z" class="cls-3"/>
      <path d="M180.81 280.61l7.78-7.78-.71-.71A3 3 0 0 1 187 270v-1h-11v1a13.91 13.91 0 0 0 4.1 9.9zm4.29-9.61a4.93 4.93 0 0 0 .73 1.76l-5 5A11.89 11.89 0 0 1 178 271z" class="cls-4"/>
      <path d="M191 274.9v7.1a11.89 11.89 0 0 0 6.75-2.8l-5-5a4.93 4.93 0 0 1-1.75.7z" class="cls-3"/>
      <path d="M192.12 272.12a3 3 0 0 1-2.12.88h-1v11h1a13.91 13.91 0 0 0 9.9-4.1l.71-.71-7.78-7.78zM191 282v-7.1a4.93 4.93 0 0 0 1.76-.73l5 5A11.89 11.89 0 0 1 191 282z" class="cls-4"/>
      <path d="M49 352h3v2h-3zm-1 9h3v2h-3z" class="cls-1"/>
      <path d="M32 344v-3a8.8 8.8 0 0 0-2.29-5.71 2.35 2.35 0 0 1-.84-2 3 3 0 0 1 .84-1.56c.92-.92 3.71-3.71 1-6.41l-1.41 1.41a1.45 1.45 0 0 1 .41 1.77 6.57 6.57 0 0 1-1.41 1.81 4.3 4.3 0 0 0 0 6.41A6.85 6.85 0 0 1 30 341v3H6v24h48v-24zm20 22H8v-20h44z" class="cls-1"/>
      <path d="M10 348h3v2h-3zm6 0h3v2h-3zm6 0h3v2h-3zm6 0h3v2h-3zm6 0h3v2h-3zm6 0h3v2h-3zm6 0h3v2h-3zm-33 4h3v2h-3zm6 0h3v2h-3zm6 0h3v2h-3zm6 0h3v2h-3zm6 0h3v2h-3zm6 0h3v2h-3zm-33 4h3v2h-3zm6 0h3v2h-3zm6 0h3v2h-3zm6 0h3v2h-3zm6 0h3v2h-3zm6 0h3v2h-3zm6 0h3v2h-3zm-34 5h3v2h-3zm6 0h3v2h-3zm6 0h15v2H24zm18 0h3v2h-3zm320.71-95l-6.13-6.12a12.47 12.47 0 0 0-16.38-1.12l-2.32-2.32a11 11 0 0 0-3.88-2.34c-2-.67-3.62-1.21-4.29-4.22l-.69-3.1-2 .43.69 3.1c.91 4.12 3.52 5 5.61 5.68a9.07 9.07 0 0 1 3.15 1.88l2.24 2.24a12.48 12.48 0 0 0 .2 17.46l6.13 6.13a12.5 12.5 0 0 0 17.67-17.7zm-22.39-4.71a10.51 10.51 0 0 1 13.26-1.29l-6.08 6.08-3.79-3.79-1.41 1.41 3.79 3.79-7.09 7.09a10.51 10.51 0 0 1 1.31-13.26zm21 21a10.5 10.5 0 0 1-14.85 0l-6.12-6.13 14.85-14.85 6.13 6.13a10.5 10.5 0 0 1 0 14.85z" class="cls-1"/>
      <circle cx="190" cy="339" r="5" class="cls-3"/>
      <path d="M190 346a7 7 0 1 0-7-7 7 7 0 0 0 7 7zm0-12a5 5 0 1 1-5 5 5 5 0 0 1 5-5z" class="cls-5"/>
      <circle cx="190" cy="359" r="8" class="cls-8"/>
      <path d="M190 349a10 10 0 1 0 10 10 10 10 0 0 0-10-10zm0 18a8 8 0 1 1 8-8 8 8 0 0 1-8 8z" class="cls-5"/>
      <circle cx="190" cy="359" r="2" class="cls-3"/>
      <path d="M190 355a4 4 0 1 0 4 4 4 4 0 0 0-4-4zm0 6a2 2 0 1 1 2-2 2 2 0 0 1-2 2zm104-24h-13v-11h-17.41l-3.59 3.59V337h-14v27h10v10h29v-10h9zm-15-9v14h-17v-11.59l2.41-2.41zm-21 44v-14h25v14zm34-10h-7v-6h-29v6h-8v-23h12v5h21v-5h11z" class="cls-5"/>
      <path d="M262 342h17v-14h-14.59l-2.41 2.41V342z" class="cls-8"/>
      <path d="M283 358h-25v14h25zm-22 3h19v2h-19zm19 8h-19v-2h19z" class="cls-3"/>
      <path d="M287 341h3v2h-3zm-26 20h19v2h-19zm0 6h19v2h-19zm90-5.05a18 18 0 1 0-2 0V366h-15v8h32v-8h-15zM334 344a16 16 0 1 1 16 16 16 16 0 0 1-16-16zm30 24v4h-28v-4z" class="cls-5"/>
      <path d="M352 338a4 4 0 0 1 .07-.69 7 7 0 1 0 4.62 4.62 4 4 0 0 1-.69.07 4 4 0 0 1-4-4z" class="cls-3"/>
      <circle cx="356" cy="338" r="2" class="cls-8"/>
      <path d="M360 338a4 4 0 0 0-7.09-2.51 9 9 0 1 0 5.6 5.6A4 4 0 0 0 360 338zm-4 2a2 2 0 1 1 2-2 2 2 0 0 1-2 2zm1 4a7 7 0 1 1-4.93-6.69 4 4 0 0 0-.07.69 4 4 0 0 0 4 4 4 4 0 0 0 .69-.07A7 7 0 0 1 357 344zM54.41 421L44 410.59l-5 5-1-1-11.5 11.5-11.5-11.5L4.59 425l11.88 11.88a8.55 8.55 0 0 0 1.82 9.82 8.58 8.58 0 0 0 12.41 0L50.41 427l-1-1zM44 413.41l1.09 1.09-1.79 1.79 1.41 1.41 1.79-1.79 2.59 2.59-1.79 1.79 1.41 1.41 1.79-1.79 1.09 1.09-3.59 3.59-7.59-7.59zm-29 4l15.29 15.29a5.36 5.36 0 0 1-7.59 7.59L7.41 425zm14.29 27.88A6.81 6.81 0 0 1 18 438.42l3.29 3.29A7.36 7.36 0 0 0 31.7 431.3l-3.79-3.79L38 417.41l9.59 9.59z" class="cls-5"/>
      <path d="M22.71 440.29a5.36 5.36 0 0 0 7.59-7.59L15 417.41 7.41 425zM30 436a4 4 0 1 1-4-4 4 4 0 0 1 4 4z" class="cls-3"/>
      <circle cx="26" cy="436" r="2" class="cls-8"/>
      <path d="M22 436a4 4 0 1 0 4-4 4 4 0 0 0-4 4zm4 2a2 2 0 1 1 2-2 2 2 0 0 1-2 2z" class="cls-5"/>
      <path d="M118 435v-4.92a8.32 8.32 0 0 0-6.37 4.92zm9 3a7.35 7.35 0 0 0-.08-1h-15.84a7.35 7.35 0 0 0-.08 1v5a8 8 0 0 0 16 0zm-7-7.92V435h6.37a8.32 8.32 0 0 0-6.37-4.92z" class="cls-3"/>
      <path d="M86 410v34h23.05a10 10 0 0 0 19.9 0H134v-34zm23 28v4H88v-30h30.09l-.93 1.46c-2.27 3.55-1 6-.05 8A9 9 0 0 1 118 425v3.05a10.15 10.15 0 0 0-9 9.95zm9-7.92V435h-6.37a8.32 8.32 0 0 1 6.37-4.92zm9 12.92a8 8 0 0 1-16 0v-5a7.35 7.35 0 0 1 .08-1h15.85a7.35 7.35 0 0 1 .08 1zm-7-8v-4.92a8.32 8.32 0 0 1 6.37 4.92zm12 7h-3v-4a10.15 10.15 0 0 0-9-9.95V425a11 11 0 0 0-1.11-4.45c-1-1.91-1.71-3.42-.05-6l1.62-2.54H132z" class="cls-1"/>
      <path d="M170 436h4v8h-4zm36 0h4v8h-4z" class="cls-3"/>
      <path d="M255.09 286.5l-1.71-1.71-3.68 3.68a1.21 1.21 0 0 0 1.71 1.71z" class="cls-8"/>
      <path d="M253.38 281.96l4.53 4.54 1.09 1.09 7.09-7.09-6.71-6.71-7.09 7.09 1.09 1.08z" class="cls-3"/>
      <path d="M282.71 246.29l-1.41 1.41 3.17 3.17-8.59 8.59-2.5-2.5-14 14-1.38 1.42-8.5 8.5 2.5 2.5-3.68 3.68a3.21 3.21 0 0 0 4.54 4.54l3.68-3.68 2.5 2.5 8.5-8.5 1.41-1.41 14-14-2.5-2.5 8.59-8.59 3.29 3.29 1.41-1.41zm-31.3 43.89a1.21 1.21 0 0 1-1.71-1.71l3.68-3.68 1.71 1.71zm7.6-2.6l-1.09-1.09-4.54-4.49-1.09-1.09 7.09-7.09 6.71 6.71zm8.5-8.5l-6.71-6.71 12.59-12.59 6.71 6.71zM279 262.54l-1.71-1.71 8.49-8.49 1.71 1.71z" class="cls-4"/>
      <path d="M209 434v-6.8a19 19 0 1 0-38 0v6.8h-3v12h6v3h3a6 6 0 0 0 6-6v-6a6 6 0 0 0-6-6h-3v3h-1v-6.8a17 17 0 1 1 34 0v6.8h-1v-3h-3a6 6 0 0 0-6 6v6a6 6 0 0 0 6 6h3v-3h6v-12zm-33 12v-13h1a4 4 0 0 1 4 4v6a4 4 0 0 1-4 4h-1zm-2-10v8h-4v-8zm30-2v13h-1a4 4 0 0 1-4-4v-6a4 4 0 0 1 4-4h1zm6 10h-4v-8h4z" class="cls-1"/>
    </g>
  </g>
</svg>
